<svg width="24" height="24" viewBox="0 0 24 24" fill="none" xmlns="http://www.w3.org/2000/svg">
<path fill-rule="evenodd" clip-rule="evenodd" d="M12.75 7L12.75 4H11.25L11.25 7H12.75ZM18.4871 8.49525L19.9871 5.99525L18.7009 5.2235L17.2009 7.7235L18.4871 8.49525ZM4.01315 5.99525L5.51315 8.49525L6.79939 7.7235L5.29939 5.2235L4.01315 5.99525ZM4.67927 14.0007C6.3303 16.1178 8.98839 17.5009 11.9991 17.5009C15.01 17.5009 17.6683 16.1176 19.3193 14.0001C18.2832 12.6715 16.8504 11.632 15.1828 11.042C15.3865 11.4859 15.5 11.9797 15.5 12.5C15.5 14.433 13.933 16 12 16C10.067 16 8.50003 14.433 8.50003 12.5C8.50003 11.9795 8.61365 11.4855 8.81744 11.0416C7.14906 11.6316 5.71569 12.6715 4.67927 14.0007ZM20.8667 13.5758C18.9711 10.8131 15.7011 9.00011 11.9998 9H11.9995C8.29775 9 5.0274 10.8133 3.13179 13.5765C2.95638 13.8322 2.9564 14.1694 3.13183 14.4251C5.02751 17.1878 8.29762 19.0009 11.9991 19.0009C15.7008 19.0009 18.9712 17.1875 20.8668 14.4244C21.0422 14.1687 21.0422 13.8314 20.8667 13.5758ZM12 14.5C13.1046 14.5 14 13.6046 14 12.5C14 11.3954 13.1046 10.5 12 10.5C10.8955 10.5 10 11.3954 10 12.5C10 13.6046 10.8955 14.5 12 14.5Z" fill="#FF4F12"/>
<path fill-rule="evenodd" clip-rule="evenodd" d="M12.75 7L12.75 4H11.25L11.25 7H12.75ZM18.4871 8.49525L19.9871 5.99525L18.7009 5.2235L17.2009 7.7235L18.4871 8.49525ZM4.01315 5.99525L5.51315 8.49525L6.79939 7.7235L5.29939 5.2235L4.01315 5.99525ZM4.67927 14.0007C6.3303 16.1178 8.98839 17.5009 11.9991 17.5009C15.01 17.5009 17.6683 16.1176 19.3193 14.0001C18.2832 12.6715 16.8504 11.632 15.1828 11.042C15.3865 11.4859 15.5 11.9797 15.5 12.5C15.5 14.433 13.933 16 12 16C10.067 16 8.50003 14.433 8.50003 12.5C8.50003 11.9795 8.61365 11.4855 8.81744 11.0416C7.14906 11.6316 5.71569 12.6715 4.67927 14.0007ZM20.8667 13.5758C18.9711 10.8131 15.7011 9.00011 11.9998 9H11.9995C8.29775 9 5.0274 10.8133 3.13179 13.5765C2.95638 13.8322 2.9564 14.1694 3.13183 14.4251C5.02751 17.1878 8.29762 19.0009 11.9991 19.0009C15.7008 19.0009 18.9712 17.1875 20.8668 14.4244C21.0422 14.1687 21.0422 13.8314 20.8667 13.5758ZM12 14.5C13.1046 14.5 14 13.6046 14 12.5C14 11.3954 13.1046 10.5 12 10.5C10.8955 10.5 10 11.3954 10 12.5C10 13.6046 10.8955 14.5 12 14.5Z" fill="#FF4F12"/>
<path fill-rule="evenodd" clip-rule="evenodd" d="M12.75 7L12.75 4H11.25L11.25 7H12.75ZM18.4871 8.49525L19.9871 5.99525L18.7009 5.2235L17.2009 7.7235L18.4871 8.49525ZM4.01315 5.99525L5.51315 8.49525L6.79939 7.7235L5.29939 5.2235L4.01315 5.99525ZM4.67927 14.0007C6.3303 16.1178 8.98839 17.5009 11.9991 17.5009C15.01 17.5009 17.6683 16.1176 19.3193 14.0001C18.2832 12.6715 16.8504 11.632 15.1828 11.042C15.3865 11.4859 15.5 11.9797 15.5 12.5C15.5 14.433 13.933 16 12 16C10.067 16 8.50003 14.433 8.50003 12.5C8.50003 11.9795 8.61365 11.4855 8.81744 11.0416C7.14906 11.6316 5.71569 12.6715 4.67927 14.0007ZM20.8667 13.5758C18.9711 10.8131 15.7011 9.00011 11.9998 9H11.9995C8.29775 9 5.0274 10.8133 3.13179 13.5765C2.95638 13.8322 2.9564 14.1694 3.13183 14.4251C5.02751 17.1878 8.29762 19.0009 11.9991 19.0009C15.7008 19.0009 18.9712 17.1875 20.8668 14.4244C21.0422 14.1687 21.0422 13.8314 20.8667 13.5758ZM12 14.5C13.1046 14.5 14 13.6046 14 12.5C14 11.3954 13.1046 10.5 12 10.5C10.8955 10.5 10 11.3954 10 12.5C10 13.6046 10.8955 14.5 12 14.5Z" fill="#FF4F12"/>
<path fill-rule="evenodd" clip-rule="evenodd" d="M12.75 7L12.75 4H11.25L11.25 7H12.75ZM18.4871 8.49525L19.9871 5.99525L18.7009 5.2235L17.2009 7.7235L18.4871 8.49525ZM4.01315 5.99525L5.51315 8.49525L6.79939 7.7235L5.29939 5.2235L4.01315 5.99525ZM4.67927 14.0007C6.3303 16.1178 8.98839 17.5009 11.9991 17.5009C15.01 17.5009 17.6683 16.1176 19.3193 14.0001C18.2832 12.6715 16.8504 11.632 15.1828 11.042C15.3865 11.4859 15.5 11.9797 15.5 12.5C15.5 14.433 13.933 16 12 16C10.067 16 8.50003 14.433 8.50003 12.5C8.50003 11.9795 8.61365 11.4855 8.81744 11.0416C7.14906 11.6316 5.71569 12.6715 4.67927 14.0007ZM20.8667 13.5758C18.9711 10.8131 15.7011 9.00011 11.9998 9H11.9995C8.29775 9 5.0274 10.8133 3.13179 13.5765C2.95638 13.8322 2.9564 14.1694 3.13183 14.4251C5.02751 17.1878 8.29762 19.0009 11.9991 19.0009C15.7008 19.0009 18.9712 17.1875 20.8668 14.4244C21.0422 14.1687 21.0422 13.8314 20.8667 13.5758ZM12 14.5C13.1046 14.5 14 13.6046 14 12.5C14 11.3954 13.1046 10.5 12 10.5C10.8955 10.5 10 11.3954 10 12.5C10 13.6046 10.8955 14.5 12 14.5Z" fill="#FF4F12"/>
<path fill-rule="evenodd" clip-rule="evenodd" d="M12.75 7L12.75 4H11.25L11.25 7H12.75ZM18.4871 8.49525L19.9871 5.99525L18.7009 5.2235L17.2009 7.7235L18.4871 8.49525ZM4.01315 5.99525L5.51315 8.49525L6.79939 7.7235L5.29939 5.2235L4.01315 5.99525ZM4.67927 14.0007C6.3303 16.1178 8.98839 17.5009 11.9991 17.5009C15.01 17.5009 17.6683 16.1176 19.3193 14.0001C18.2832 12.6715 16.8504 11.632 15.1828 11.042C15.3865 11.4859 15.5 11.9797 15.5 12.5C15.5 14.433 13.933 16 12 16C10.067 16 8.50003 14.433 8.50003 12.5C8.50003 11.9795 8.61365 11.4855 8.81744 11.0416C7.14906 11.6316 5.71569 12.6715 4.67927 14.0007ZM20.8667 13.5758C18.9711 10.8131 15.7011 9.00011 11.9998 9H11.9995C8.29775 9 5.0274 10.8133 3.13179 13.5765C2.95638 13.8322 2.9564 14.1694 3.13183 14.4251C5.02751 17.1878 8.29762 19.0009 11.9991 19.0009C15.7008 19.0009 18.9712 17.1875 20.8668 14.4244C21.0422 14.1687 21.0422 13.8314 20.8667 13.5758ZM12 14.5C13.1046 14.5 14 13.6046 14 12.5C14 11.3954 13.1046 10.5 12 10.5C10.8955 10.5 10 11.3954 10 12.5C10 13.6046 10.8955 14.5 12 14.5Z" fill="#FF4F12"/>
<path fill-rule="evenodd" clip-rule="evenodd" d="M12.75 7L12.75 4H11.25L11.25 7H12.75ZM18.4871 8.49525L19.9871 5.99525L18.7009 5.2235L17.2009 7.7235L18.4871 8.49525ZM4.01315 5.99525L5.51315 8.49525L6.79939 7.7235L5.29939 5.2235L4.01315 5.99525ZM4.67927 14.0007C6.3303 16.1178 8.98839 17.5009 11.9991 17.5009C15.01 17.5009 17.6683 16.1176 19.3193 14.0001C18.2832 12.6715 16.8504 11.632 15.1828 11.042C15.3865 11.4859 15.5 11.9797 15.5 12.5C15.5 14.433 13.933 16 12 16C10.067 16 8.50003 14.433 8.50003 12.5C8.50003 11.9795 8.61365 11.4855 8.81744 11.0416C7.14906 11.6316 5.71569 12.6715 4.67927 14.0007ZM20.8667 13.5758C18.9711 10.8131 15.7011 9.00011 11.9998 9H11.9995C8.29775 9 5.0274 10.8133 3.13179 13.5765C2.95638 13.8322 2.9564 14.1694 3.13183 14.4251C5.02751 17.1878 8.29762 19.0009 11.9991 19.0009C15.7008 19.0009 18.9712 17.1875 20.8668 14.4244C21.0422 14.1687 21.0422 13.8314 20.8667 13.5758ZM12 14.5C13.1046 14.5 14 13.6046 14 12.5C14 11.3954 13.1046 10.5 12 10.5C10.8955 10.5 10 11.3954 10 12.5C10 13.6046 10.8955 14.5 12 14.5Z" fill="#FF4F12"/>
<path fill-rule="evenodd" clip-rule="evenodd" d="M12.75 7L12.75 4H11.25L11.25 7H12.75ZM18.4871 8.49525L19.9871 5.99525L18.7009 5.2235L17.2009 7.7235L18.4871 8.49525ZM4.01315 5.99525L5.51315 8.49525L6.79939 7.7235L5.29939 5.2235L4.01315 5.99525ZM4.67927 14.0007C6.3303 16.1178 8.98839 17.5009 11.9991 17.5009C15.01 17.5009 17.6683 16.1176 19.3193 14.0001C18.2832 12.6715 16.8504 11.632 15.1828 11.042C15.3865 11.4859 15.5 11.9797 15.5 12.5C15.5 14.433 13.933 16 12 16C10.067 16 8.50003 14.433 8.50003 12.5C8.50003 11.9795 8.61365 11.4855 8.81744 11.0416C7.14906 11.6316 5.71569 12.6715 4.67927 14.0007ZM20.8667 13.5758C18.9711 10.8131 15.7011 9.00011 11.9998 9H11.9995C8.29775 9 5.0274 10.8133 3.13179 13.5765C2.95638 13.8322 2.9564 14.1694 3.13183 14.4251C5.02751 17.1878 8.29762 19.0009 11.9991 19.0009C15.7008 19.0009 18.9712 17.1875 20.8668 14.4244C21.0422 14.1687 21.0422 13.8314 20.8667 13.5758ZM12 14.5C13.1046 14.5 14 13.6046 14 12.5C14 11.3954 13.1046 10.5 12 10.5C10.8955 10.5 10 11.3954 10 12.5C10 13.6046 10.8955 14.5 12 14.5Z" fill="#FF4F12"/>
<path fill-rule="evenodd" clip-rule="evenodd" d="M12.75 7L12.75 4H11.25L11.25 7H12.75ZM18.4871 8.49525L19.9871 5.99525L18.7009 5.2235L17.2009 7.7235L18.4871 8.49525ZM4.01315 5.99525L5.51315 8.49525L6.79939 7.7235L5.29939 5.2235L4.01315 5.99525ZM4.67927 14.0007C6.3303 16.1178 8.98839 17.5009 11.9991 17.5009C15.01 17.5009 17.6683 16.1176 19.3193 14.0001C18.2832 12.6715 16.8504 11.632 15.1828 11.042C15.3865 11.4859 15.5 11.9797 15.5 12.5C15.5 14.433 13.933 16 12 16C10.067 16 8.50003 14.433 8.50003 12.5C8.50003 11.9795 8.61365 11.4855 8.81744 11.0416C7.14906 11.6316 5.71569 12.6715 4.67927 14.0007ZM20.8667 13.5758C18.9711 10.8131 15.7011 9.00011 11.9998 9H11.9995C8.29775 9 5.0274 10.8133 3.13179 13.5765C2.95638 13.8322 2.9564 14.1694 3.13183 14.4251C5.02751 17.1878 8.29762 19.0009 11.9991 19.0009C15.7008 19.0009 18.9712 17.1875 20.8668 14.4244C21.0422 14.1687 21.0422 13.8314 20.8667 13.5758ZM12 14.5C13.1046 14.5 14 13.6046 14 12.5C14 11.3954 13.1046 10.5 12 10.5C10.8955 10.5 10 11.3954 10 12.5C10 13.6046 10.8955 14.5 12 14.5Z" fill="#FF4F12"/>
<path fill-rule="evenodd" clip-rule="evenodd" d="M12.75 7L12.75 4H11.25L11.25 7H12.75ZM18.4871 8.49525L19.9871 5.99525L18.7009 5.2235L17.2009 7.7235L18.4871 8.49525ZM4.01315 5.99525L5.51315 8.49525L6.79939 7.7235L5.29939 5.2235L4.01315 5.99525ZM4.67927 14.0007C6.3303 16.1178 8.98839 17.5009 11.9991 17.5009C15.01 17.5009 17.6683 16.1176 19.3193 14.0001C18.2832 12.6715 16.8504 11.632 15.1828 11.042C15.3865 11.4859 15.5 11.9797 15.5 12.5C15.5 14.433 13.933 16 12 16C10.067 16 8.50003 14.433 8.50003 12.5C8.50003 11.9795 8.61365 11.4855 8.81744 11.0416C7.14906 11.6316 5.71569 12.6715 4.67927 14.0007ZM20.8667 13.5758C18.9711 10.8131 15.7011 9.00011 11.9998 9H11.9995C8.29775 9 5.0274 10.8133 3.13179 13.5765C2.95638 13.8322 2.9564 14.1694 3.13183 14.4251C5.02751 17.1878 8.29762 19.0009 11.9991 19.0009C15.7008 19.0009 18.9712 17.1875 20.8668 14.4244C21.0422 14.1687 21.0422 13.8314 20.8667 13.5758ZM12 14.5C13.1046 14.5 14 13.6046 14 12.5C14 11.3954 13.1046 10.5 12 10.5C10.8955 10.5 10 11.3954 10 12.5C10 13.6046 10.8955 14.5 12 14.5Z" fill="#FF4F12"/>
<path fill-rule="evenodd" clip-rule="evenodd" d="M12.75 7L12.75 4H11.25L11.25 7H12.75ZM18.4871 8.49525L19.9871 5.99525L18.7009 5.2235L17.2009 7.7235L18.4871 8.49525ZM4.01315 5.99525L5.51315 8.49525L6.79939 7.7235L5.29939 5.2235L4.01315 5.99525ZM4.67927 14.0007C6.3303 16.1178 8.98839 17.5009 11.9991 17.5009C15.01 17.5009 17.6683 16.1176 19.3193 14.0001C18.2832 12.6715 16.8504 11.632 15.1828 11.042C15.3865 11.4859 15.5 11.9797 15.5 12.5C15.5 14.433 13.933 16 12 16C10.067 16 8.50003 14.433 8.50003 12.5C8.50003 11.9795 8.61365 11.4855 8.81744 11.0416C7.14906 11.6316 5.71569 12.6715 4.67927 14.0007ZM20.8667 13.5758C18.9711 10.8131 15.7011 9.00011 11.9998 9H11.9995C8.29775 9 5.0274 10.8133 3.13179 13.5765C2.95638 13.8322 2.9564 14.1694 3.13183 14.4251C5.02751 17.1878 8.29762 19.0009 11.9991 19.0009C15.7008 19.0009 18.9712 17.1875 20.8668 14.4244C21.0422 14.1687 21.0422 13.8314 20.8667 13.5758ZM12 14.5C13.1046 14.5 14 13.6046 14 12.5C14 11.3954 13.1046 10.5 12 10.5C10.8955 10.5 10 11.3954 10 12.5C10 13.6046 10.8955 14.5 12 14.5Z" fill="#FF4F12"/>
<path fill-rule="evenodd" clip-rule="evenodd" d="M12.75 7L12.75 4H11.25L11.25 7H12.75ZM18.4871 8.49525L19.9871 5.99525L18.7009 5.2235L17.2009 7.7235L18.4871 8.49525ZM4.01315 5.99525L5.51315 8.49525L6.79939 7.7235L5.29939 5.2235L4.01315 5.99525ZM4.67927 14.0007C6.3303 16.1178 8.98839 17.5009 11.9991 17.5009C15.01 17.5009 17.6683 16.1176 19.3193 14.0001C18.2832 12.6715 16.8504 11.632 15.1828 11.042C15.3865 11.4859 15.5 11.9797 15.5 12.5C15.5 14.433 13.933 16 12 16C10.067 16 8.50003 14.433 8.50003 12.5C8.50003 11.9795 8.61365 11.4855 8.81744 11.0416C7.14906 11.6316 5.71569 12.6715 4.67927 14.0007ZM20.8667 13.5758C18.9711 10.8131 15.7011 9.00011 11.9998 9H11.9995C8.29775 9 5.0274 10.8133 3.13179 13.5765C2.95638 13.8322 2.9564 14.1694 3.13183 14.4251C5.02751 17.1878 8.29762 19.0009 11.9991 19.0009C15.7008 19.0009 18.9712 17.1875 20.8668 14.4244C21.0422 14.1687 21.0422 13.8314 20.8667 13.5758ZM12 14.5C13.1046 14.5 14 13.6046 14 12.5C14 11.3954 13.1046 10.5 12 10.5C10.8955 10.5 10 11.3954 10 12.5C10 13.6046 10.8955 14.5 12 14.5Z" fill="#FF4F12"/>
<path fill-rule="evenodd" clip-rule="evenodd" d="M12.75 7L12.75 4H11.25L11.25 7H12.75ZM18.4871 8.49525L19.9871 5.99525L18.7009 5.2235L17.2009 7.7235L18.4871 8.49525ZM4.01315 5.99525L5.51315 8.49525L6.79939 7.7235L5.29939 5.2235L4.01315 5.99525ZM4.67927 14.0007C6.3303 16.1178 8.98839 17.5009 11.9991 17.5009C15.01 17.5009 17.6683 16.1176 19.3193 14.0001C18.2832 12.6715 16.8504 11.632 15.1828 11.042C15.3865 11.4859 15.5 11.9797 15.5 12.5C15.5 14.433 13.933 16 12 16C10.067 16 8.50003 14.433 8.50003 12.5C8.50003 11.9795 8.61365 11.4855 8.81744 11.0416C7.14906 11.6316 5.71569 12.6715 4.67927 14.0007ZM20.8667 13.5758C18.9711 10.8131 15.7011 9.00011 11.9998 9H11.9995C8.29775 9 5.0274 10.8133 3.13179 13.5765C2.95638 13.8322 2.9564 14.1694 3.13183 14.4251C5.02751 17.1878 8.29762 19.0009 11.9991 19.0009C15.7008 19.0009 18.9712 17.1875 20.8668 14.4244C21.0422 14.1687 21.0422 13.8314 20.8667 13.5758ZM12 14.5C13.1046 14.5 14 13.6046 14 12.5C14 11.3954 13.1046 10.5 12 10.5C10.8955 10.5 10 11.3954 10 12.5C10 13.6046 10.8955 14.5 12 14.5Z" fill="#FF4F12"/>
<path fill-rule="evenodd" clip-rule="evenodd" d="M12.75 7L12.75 4H11.25L11.25 7H12.75ZM18.4871 8.49525L19.9871 5.99525L18.7009 5.2235L17.2009 7.7235L18.4871 8.49525ZM4.01315 5.99525L5.51315 8.49525L6.79939 7.7235L5.29939 5.2235L4.01315 5.99525ZM4.67927 14.0007C6.3303 16.1178 8.98839 17.5009 11.9991 17.5009C15.01 17.5009 17.6683 16.1176 19.3193 14.0001C18.2832 12.6715 16.8504 11.632 15.1828 11.042C15.3865 11.4859 15.5 11.9797 15.5 12.5C15.5 14.433 13.933 16 12 16C10.067 16 8.50003 14.433 8.50003 12.5C8.50003 11.9795 8.61365 11.4855 8.81744 11.0416C7.14906 11.6316 5.71569 12.6715 4.67927 14.0007ZM20.8667 13.5758C18.9711 10.8131 15.7011 9.00011 11.9998 9H11.9995C8.29775 9 5.0274 10.8133 3.13179 13.5765C2.95638 13.8322 2.9564 14.1694 3.13183 14.4251C5.02751 17.1878 8.29762 19.0009 11.9991 19.0009C15.7008 19.0009 18.9712 17.1875 20.8668 14.4244C21.0422 14.1687 21.0422 13.8314 20.8667 13.5758ZM12 14.5C13.1046 14.5 14 13.6046 14 12.5C14 11.3954 13.1046 10.5 12 10.5C10.8955 10.5 10 11.3954 10 12.5C10 13.6046 10.8955 14.5 12 14.5Z" fill="#FF4F12"/>
<path fill-rule="evenodd" clip-rule="evenodd" d="M12.75 7L12.75 4H11.25L11.25 7H12.75ZM18.4871 8.49525L19.9871 5.99525L18.7009 5.2235L17.2009 7.7235L18.4871 8.49525ZM4.01315 5.99525L5.51315 8.49525L6.79939 7.7235L5.29939 5.2235L4.01315 5.99525ZM4.67927 14.0007C6.3303 16.1178 8.98839 17.5009 11.9991 17.5009C15.01 17.5009 17.6683 16.1176 19.3193 14.0001C18.2832 12.6715 16.8504 11.632 15.1828 11.042C15.3865 11.4859 15.5 11.9797 15.5 12.5C15.5 14.433 13.933 16 12 16C10.067 16 8.50003 14.433 8.50003 12.5C8.50003 11.9795 8.61365 11.4855 8.81744 11.0416C7.14906 11.6316 5.71569 12.6715 4.67927 14.0007ZM20.8667 13.5758C18.9711 10.8131 15.7011 9.00011 11.9998 9H11.9995C8.29775 9 5.0274 10.8133 3.13179 13.5765C2.95638 13.8322 2.9564 14.1694 3.13183 14.4251C5.02751 17.1878 8.29762 19.0009 11.9991 19.0009C15.7008 19.0009 18.9712 17.1875 20.8668 14.4244C21.0422 14.1687 21.0422 13.8314 20.8667 13.5758ZM12 14.5C13.1046 14.5 14 13.6046 14 12.5C14 11.3954 13.1046 10.5 12 10.5C10.8955 10.5 10 11.3954 10 12.5C10 13.6046 10.8955 14.5 12 14.5Z" fill="#FF4F12"/>
<path fill-rule="evenodd" clip-rule="evenodd" d="M12.75 7L12.75 4H11.25L11.25 7H12.75ZM18.4871 8.49525L19.9871 5.99525L18.7009 5.2235L17.2009 7.7235L18.4871 8.49525ZM4.01315 5.99525L5.51315 8.49525L6.79939 7.7235L5.29939 5.2235L4.01315 5.99525ZM4.67927 14.0007C6.3303 16.1178 8.98839 17.5009 11.9991 17.5009C15.01 17.5009 17.6683 16.1176 19.3193 14.0001C18.2832 12.6715 16.8504 11.632 15.1828 11.042C15.3865 11.4859 15.5 11.9797 15.5 12.5C15.5 14.433 13.933 16 12 16C10.067 16 8.50003 14.433 8.50003 12.5C8.50003 11.9795 8.61365 11.4855 8.81744 11.0416C7.14906 11.6316 5.71569 12.6715 4.67927 14.0007ZM20.8667 13.5758C18.9711 10.8131 15.7011 9.00011 11.9998 9H11.9995C8.29775 9 5.0274 10.8133 3.13179 13.5765C2.95638 13.8322 2.9564 14.1694 3.13183 14.4251C5.02751 17.1878 8.29762 19.0009 11.9991 19.0009C15.7008 19.0009 18.9712 17.1875 20.8668 14.4244C21.0422 14.1687 21.0422 13.8314 20.8667 13.5758ZM12 14.5C13.1046 14.5 14 13.6046 14 12.5C14 11.3954 13.1046 10.5 12 10.5C10.8955 10.5 10 11.3954 10 12.5C10 13.6046 10.8955 14.5 12 14.5Z" fill="#FF4F12"/>
<path fill-rule="evenodd" clip-rule="evenodd" d="M12.75 7L12.75 4H11.25L11.25 7H12.75ZM18.4871 8.49525L19.9871 5.99525L18.7009 5.2235L17.2009 7.7235L18.4871 8.49525ZM4.01315 5.99525L5.51315 8.49525L6.79939 7.7235L5.29939 5.2235L4.01315 5.99525ZM4.67927 14.0007C6.3303 16.1178 8.98839 17.5009 11.9991 17.5009C15.01 17.5009 17.6683 16.1176 19.3193 14.0001C18.2832 12.6715 16.8504 11.632 15.1828 11.042C15.3865 11.4859 15.5 11.9797 15.5 12.5C15.5 14.433 13.933 16 12 16C10.067 16 8.50003 14.433 8.50003 12.5C8.50003 11.9795 8.61365 11.4855 8.81744 11.0416C7.14906 11.6316 5.71569 12.6715 4.67927 14.0007ZM20.8667 13.5758C18.9711 10.8131 15.7011 9.00011 11.9998 9H11.9995C8.29775 9 5.0274 10.8133 3.13179 13.5765C2.95638 13.8322 2.9564 14.1694 3.13183 14.4251C5.02751 17.1878 8.29762 19.0009 11.9991 19.0009C15.7008 19.0009 18.9712 17.1875 20.8668 14.4244C21.0422 14.1687 21.0422 13.8314 20.8667 13.5758ZM12 14.5C13.1046 14.5 14 13.6046 14 12.5C14 11.3954 13.1046 10.5 12 10.5C10.8955 10.5 10 11.3954 10 12.5C10 13.6046 10.8955 14.5 12 14.5Z" fill="#FF4F12"/>
<path fill-rule="evenodd" clip-rule="evenodd" d="M12.75 7L12.75 4H11.25L11.25 7H12.75ZM18.4871 8.49525L19.9871 5.99525L18.7009 5.2235L17.2009 7.7235L18.4871 8.49525ZM4.01315 5.99525L5.51315 8.49525L6.79939 7.7235L5.29939 5.2235L4.01315 5.99525ZM4.67927 14.0007C6.3303 16.1178 8.98839 17.5009 11.9991 17.5009C15.01 17.5009 17.6683 16.1176 19.3193 14.0001C18.2832 12.6715 16.8504 11.632 15.1828 11.042C15.3865 11.4859 15.5 11.9797 15.5 12.5C15.5 14.433 13.933 16 12 16C10.067 16 8.50003 14.433 8.50003 12.5C8.50003 11.9795 8.61365 11.4855 8.81744 11.0416C7.14906 11.6316 5.71569 12.6715 4.67927 14.0007ZM20.8667 13.5758C18.9711 10.8131 15.7011 9.00011 11.9998 9H11.9995C8.29775 9 5.0274 10.8133 3.13179 13.5765C2.95638 13.8322 2.9564 14.1694 3.13183 14.4251C5.02751 17.1878 8.29762 19.0009 11.9991 19.0009C15.7008 19.0009 18.9712 17.1875 20.8668 14.4244C21.0422 14.1687 21.0422 13.8314 20.8667 13.5758ZM12 14.5C13.1046 14.5 14 13.6046 14 12.5C14 11.3954 13.1046 10.5 12 10.5C10.8955 10.5 10 11.3954 10 12.5C10 13.6046 10.8955 14.5 12 14.5Z" fill="#FF4F12"/>
<path fill-rule="evenodd" clip-rule="evenodd" d="M12.75 7L12.75 4H11.25L11.25 7H12.75ZM18.4871 8.49525L19.9871 5.99525L18.7009 5.2235L17.2009 7.7235L18.4871 8.49525ZM4.01315 5.99525L5.51315 8.49525L6.79939 7.7235L5.29939 5.2235L4.01315 5.99525ZM4.67927 14.0007C6.3303 16.1178 8.98839 17.5009 11.9991 17.5009C15.01 17.5009 17.6683 16.1176 19.3193 14.0001C18.2832 12.6715 16.8504 11.632 15.1828 11.042C15.3865 11.4859 15.5 11.9797 15.5 12.5C15.5 14.433 13.933 16 12 16C10.067 16 8.50003 14.433 8.50003 12.5C8.50003 11.9795 8.61365 11.4855 8.81744 11.0416C7.14906 11.6316 5.71569 12.6715 4.67927 14.0007ZM20.8667 13.5758C18.9711 10.8131 15.7011 9.00011 11.9998 9H11.9995C8.29775 9 5.0274 10.8133 3.13179 13.5765C2.95638 13.8322 2.9564 14.1694 3.13183 14.4251C5.02751 17.1878 8.29762 19.0009 11.9991 19.0009C15.7008 19.0009 18.9712 17.1875 20.8668 14.4244C21.0422 14.1687 21.0422 13.8314 20.8667 13.5758ZM12 14.5C13.1046 14.5 14 13.6046 14 12.5C14 11.3954 13.1046 10.5 12 10.5C10.8955 10.5 10 11.3954 10 12.5C10 13.6046 10.8955 14.5 12 14.5Z" fill="#FF4F12"/>
<path fill-rule="evenodd" clip-rule="evenodd" d="M12.75 7L12.75 4H11.25L11.25 7H12.75ZM18.4871 8.49525L19.9871 5.99525L18.7009 5.2235L17.2009 7.7235L18.4871 8.49525ZM4.01315 5.99525L5.51315 8.49525L6.79939 7.7235L5.29939 5.2235L4.01315 5.99525ZM4.67927 14.0007C6.3303 16.1178 8.98839 17.5009 11.9991 17.5009C15.01 17.5009 17.6683 16.1176 19.3193 14.0001C18.2832 12.6715 16.8504 11.632 15.1828 11.042C15.3865 11.4859 15.5 11.9797 15.5 12.5C15.5 14.433 13.933 16 12 16C10.067 16 8.50003 14.433 8.50003 12.5C8.50003 11.9795 8.61365 11.4855 8.81744 11.0416C7.14906 11.6316 5.71569 12.6715 4.67927 14.0007ZM20.8667 13.5758C18.9711 10.8131 15.7011 9.00011 11.9998 9H11.9995C8.29775 9 5.0274 10.8133 3.13179 13.5765C2.95638 13.8322 2.9564 14.1694 3.13183 14.4251C5.02751 17.1878 8.29762 19.0009 11.9991 19.0009C15.7008 19.0009 18.9712 17.1875 20.8668 14.4244C21.0422 14.1687 21.0422 13.8314 20.8667 13.5758ZM12 14.5C13.1046 14.5 14 13.6046 14 12.5C14 11.3954 13.1046 10.5 12 10.5C10.8955 10.5 10 11.3954 10 12.5C10 13.6046 10.8955 14.5 12 14.5Z" fill="#FF4F12"/>
<path fill-rule="evenodd" clip-rule="evenodd" d="M12.75 7L12.75 4H11.25L11.25 7H12.75ZM18.4871 8.49525L19.9871 5.99525L18.7009 5.2235L17.2009 7.7235L18.4871 8.49525ZM4.01315 5.99525L5.51315 8.49525L6.79939 7.7235L5.29939 5.2235L4.01315 5.99525ZM4.67927 14.0007C6.3303 16.1178 8.98839 17.5009 11.9991 17.5009C15.01 17.5009 17.6683 16.1176 19.3193 14.0001C18.2832 12.6715 16.8504 11.632 15.1828 11.042C15.3865 11.4859 15.5 11.9797 15.5 12.5C15.5 14.433 13.933 16 12 16C10.067 16 8.50003 14.433 8.50003 12.5C8.50003 11.9795 8.61365 11.4855 8.81744 11.0416C7.14906 11.6316 5.71569 12.6715 4.67927 14.0007ZM20.8667 13.5758C18.9711 10.8131 15.7011 9.00011 11.9998 9H11.9995C8.29775 9 5.0274 10.8133 3.13179 13.5765C2.95638 13.8322 2.9564 14.1694 3.13183 14.4251C5.02751 17.1878 8.29762 19.0009 11.9991 19.0009C15.7008 19.0009 18.9712 17.1875 20.8668 14.4244C21.0422 14.1687 21.0422 13.8314 20.8667 13.5758ZM12 14.5C13.1046 14.5 14 13.6046 14 12.5C14 11.3954 13.1046 10.5 12 10.5C10.8955 10.5 10 11.3954 10 12.5C10 13.6046 10.8955 14.5 12 14.5Z" fill="#FF4F12"/>
<path fill-rule="evenodd" clip-rule="evenodd" d="M12.75 7L12.75 4H11.25L11.25 7H12.75ZM18.4871 8.49525L19.9871 5.99525L18.7009 5.2235L17.2009 7.7235L18.4871 8.49525ZM4.01315 5.99525L5.51315 8.49525L6.79939 7.7235L5.29939 5.2235L4.01315 5.99525ZM4.67927 14.0007C6.3303 16.1178 8.98839 17.5009 11.9991 17.5009C15.01 17.5009 17.6683 16.1176 19.3193 14.0001C18.2832 12.6715 16.8504 11.632 15.1828 11.042C15.3865 11.4859 15.5 11.9797 15.5 12.5C15.5 14.433 13.933 16 12 16C10.067 16 8.50003 14.433 8.50003 12.5C8.50003 11.9795 8.61365 11.4855 8.81744 11.0416C7.14906 11.6316 5.71569 12.6715 4.67927 14.0007ZM20.8667 13.5758C18.9711 10.8131 15.7011 9.00011 11.9998 9H11.9995C8.29775 9 5.0274 10.8133 3.13179 13.5765C2.95638 13.8322 2.9564 14.1694 3.13183 14.4251C5.02751 17.1878 8.29762 19.0009 11.9991 19.0009C15.7008 19.0009 18.9712 17.1875 20.8668 14.4244C21.0422 14.1687 21.0422 13.8314 20.8667 13.5758ZM12 14.5C13.1046 14.5 14 13.6046 14 12.5C14 11.3954 13.1046 10.5 12 10.5C10.8955 10.5 10 11.3954 10 12.5C10 13.6046 10.8955 14.5 12 14.5Z" fill="#FF4F12"/>
<path fill-rule="evenodd" clip-rule="evenodd" d="M12.75 7L12.75 4H11.25L11.25 7H12.75ZM18.4871 8.49525L19.9871 5.99525L18.7009 5.2235L17.2009 7.7235L18.4871 8.49525ZM4.01315 5.99525L5.51315 8.49525L6.79939 7.7235L5.29939 5.2235L4.01315 5.99525ZM4.67927 14.0007C6.3303 16.1178 8.98839 17.5009 11.9991 17.5009C15.01 17.5009 17.6683 16.1176 19.3193 14.0001C18.2832 12.6715 16.8504 11.632 15.1828 11.042C15.3865 11.4859 15.5 11.9797 15.5 12.5C15.5 14.433 13.933 16 12 16C10.067 16 8.50003 14.433 8.50003 12.5C8.50003 11.9795 8.61365 11.4855 8.81744 11.0416C7.14906 11.6316 5.71569 12.6715 4.67927 14.0007ZM20.8667 13.5758C18.9711 10.8131 15.7011 9.00011 11.9998 9H11.9995C8.29775 9 5.0274 10.8133 3.13179 13.5765C2.95638 13.8322 2.9564 14.1694 3.13183 14.4251C5.02751 17.1878 8.29762 19.0009 11.9991 19.0009C15.7008 19.0009 18.9712 17.1875 20.8668 14.4244C21.0422 14.1687 21.0422 13.8314 20.8667 13.5758ZM12 14.5C13.1046 14.5 14 13.6046 14 12.5C14 11.3954 13.1046 10.5 12 10.5C10.8955 10.5 10 11.3954 10 12.5C10 13.6046 10.8955 14.5 12 14.5Z" fill="#FF4F12"/>
<path fill-rule="evenodd" clip-rule="evenodd" d="M12.75 7L12.75 4H11.25L11.25 7H12.75ZM18.4871 8.49525L19.9871 5.99525L18.7009 5.2235L17.2009 7.7235L18.4871 8.49525ZM4.01315 5.99525L5.51315 8.49525L6.79939 7.7235L5.29939 5.2235L4.01315 5.99525ZM4.67927 14.0007C6.3303 16.1178 8.98839 17.5009 11.9991 17.5009C15.01 17.5009 17.6683 16.1176 19.3193 14.0001C18.2832 12.6715 16.8504 11.632 15.1828 11.042C15.3865 11.4859 15.5 11.9797 15.5 12.5C15.5 14.433 13.933 16 12 16C10.067 16 8.50003 14.433 8.50003 12.5C8.50003 11.9795 8.61365 11.4855 8.81744 11.0416C7.14906 11.6316 5.71569 12.6715 4.67927 14.0007ZM20.8667 13.5758C18.9711 10.8131 15.7011 9.00011 11.9998 9H11.9995C8.29775 9 5.0274 10.8133 3.13179 13.5765C2.95638 13.8322 2.9564 14.1694 3.13183 14.4251C5.02751 17.1878 8.29762 19.0009 11.9991 19.0009C15.7008 19.0009 18.9712 17.1875 20.8668 14.4244C21.0422 14.1687 21.0422 13.8314 20.8667 13.5758ZM12 14.5C13.1046 14.5 14 13.6046 14 12.5C14 11.3954 13.1046 10.5 12 10.5C10.8955 10.5 10 11.3954 10 12.5C10 13.6046 10.8955 14.5 12 14.5Z" fill="#FF4F12"/>
<path fill-rule="evenodd" clip-rule="evenodd" d="M12.75 7L12.75 4H11.25L11.25 7H12.75ZM18.4871 8.49525L19.9871 5.99525L18.7009 5.2235L17.2009 7.7235L18.4871 8.49525ZM4.01315 5.99525L5.51315 8.49525L6.79939 7.7235L5.29939 5.2235L4.01315 5.99525ZM4.67927 14.0007C6.3303 16.1178 8.98839 17.5009 11.9991 17.5009C15.01 17.5009 17.6683 16.1176 19.3193 14.0001C18.2832 12.6715 16.8504 11.632 15.1828 11.042C15.3865 11.4859 15.5 11.9797 15.5 12.5C15.5 14.433 13.933 16 12 16C10.067 16 8.50003 14.433 8.50003 12.5C8.50003 11.9795 8.61365 11.4855 8.81744 11.0416C7.14906 11.6316 5.71569 12.6715 4.67927 14.0007ZM20.8667 13.5758C18.9711 10.8131 15.7011 9.00011 11.9998 9H11.9995C8.29775 9 5.0274 10.8133 3.13179 13.5765C2.95638 13.8322 2.9564 14.1694 3.13183 14.4251C5.02751 17.1878 8.29762 19.0009 11.9991 19.0009C15.7008 19.0009 18.9712 17.1875 20.8668 14.4244C21.0422 14.1687 21.0422 13.8314 20.8667 13.5758ZM12 14.5C13.1046 14.5 14 13.6046 14 12.5C14 11.3954 13.1046 10.5 12 10.5C10.8955 10.5 10 11.3954 10 12.5C10 13.6046 10.8955 14.5 12 14.5Z" fill="#FF4F12"/>
<path fill-rule="evenodd" clip-rule="evenodd" d="M12.75 7L12.75 4H11.25L11.25 7H12.75ZM18.4871 8.49525L19.9871 5.99525L18.7009 5.2235L17.2009 7.7235L18.4871 8.49525ZM4.01315 5.99525L5.51315 8.49525L6.79939 7.7235L5.29939 5.2235L4.01315 5.99525ZM4.67927 14.0007C6.3303 16.1178 8.98839 17.5009 11.9991 17.5009C15.01 17.5009 17.6683 16.1176 19.3193 14.0001C18.2832 12.6715 16.8504 11.632 15.1828 11.042C15.3865 11.4859 15.5 11.9797 15.5 12.5C15.5 14.433 13.933 16 12 16C10.067 16 8.50003 14.433 8.50003 12.5C8.50003 11.9795 8.61365 11.4855 8.81744 11.0416C7.14906 11.6316 5.71569 12.6715 4.67927 14.0007ZM20.8667 13.5758C18.9711 10.8131 15.7011 9.00011 11.9998 9H11.9995C8.29775 9 5.0274 10.8133 3.13179 13.5765C2.95638 13.8322 2.9564 14.1694 3.13183 14.4251C5.02751 17.1878 8.29762 19.0009 11.9991 19.0009C15.7008 19.0009 18.9712 17.1875 20.8668 14.4244C21.0422 14.1687 21.0422 13.8314 20.8667 13.5758ZM12 14.5C13.1046 14.5 14 13.6046 14 12.5C14 11.3954 13.1046 10.5 12 10.5C10.8955 10.5 10 11.3954 10 12.5C10 13.6046 10.8955 14.5 12 14.5Z" fill="#FF4F12"/>
<path fill-rule="evenodd" clip-rule="evenodd" d="M12.75 7L12.75 4H11.25L11.25 7H12.75ZM18.4871 8.49525L19.9871 5.99525L18.7009 5.2235L17.2009 7.7235L18.4871 8.49525ZM4.01315 5.99525L5.51315 8.49525L6.79939 7.7235L5.29939 5.2235L4.01315 5.99525ZM4.67927 14.0007C6.3303 16.1178 8.98839 17.5009 11.9991 17.5009C15.01 17.5009 17.6683 16.1176 19.3193 14.0001C18.2832 12.6715 16.8504 11.632 15.1828 11.042C15.3865 11.4859 15.5 11.9797 15.5 12.5C15.5 14.433 13.933 16 12 16C10.067 16 8.50003 14.433 8.50003 12.5C8.50003 11.9795 8.61365 11.4855 8.81744 11.0416C7.14906 11.6316 5.71569 12.6715 4.67927 14.0007ZM20.8667 13.5758C18.9711 10.8131 15.7011 9.00011 11.9998 9H11.9995C8.29775 9 5.0274 10.8133 3.13179 13.5765C2.95638 13.8322 2.9564 14.1694 3.13183 14.4251C5.02751 17.1878 8.29762 19.0009 11.9991 19.0009C15.7008 19.0009 18.9712 17.1875 20.8668 14.4244C21.0422 14.1687 21.0422 13.8314 20.8667 13.5758ZM12 14.5C13.1046 14.5 14 13.6046 14 12.5C14 11.3954 13.1046 10.5 12 10.5C10.8955 10.5 10 11.3954 10 12.5C10 13.6046 10.8955 14.5 12 14.5Z" fill="#FF4F12"/>
<path fill-rule="evenodd" clip-rule="evenodd" d="M12.75 7L12.75 4H11.25L11.25 7H12.75ZM18.4871 8.49525L19.9871 5.99525L18.7009 5.2235L17.2009 7.7235L18.4871 8.49525ZM4.01315 5.99525L5.51315 8.49525L6.79939 7.7235L5.29939 5.2235L4.01315 5.99525ZM4.67927 14.0007C6.3303 16.1178 8.98839 17.5009 11.9991 17.5009C15.01 17.5009 17.6683 16.1176 19.3193 14.0001C18.2832 12.6715 16.8504 11.632 15.1828 11.042C15.3865 11.4859 15.5 11.9797 15.5 12.5C15.5 14.433 13.933 16 12 16C10.067 16 8.50003 14.433 8.50003 12.5C8.50003 11.9795 8.61365 11.4855 8.81744 11.0416C7.14906 11.6316 5.71569 12.6715 4.67927 14.0007ZM20.8667 13.5758C18.9711 10.8131 15.7011 9.00011 11.9998 9H11.9995C8.29775 9 5.0274 10.8133 3.13179 13.5765C2.95638 13.8322 2.9564 14.1694 3.13183 14.4251C5.02751 17.1878 8.29762 19.0009 11.9991 19.0009C15.7008 19.0009 18.9712 17.1875 20.8668 14.4244C21.0422 14.1687 21.0422 13.8314 20.8667 13.5758ZM12 14.5C13.1046 14.5 14 13.6046 14 12.5C14 11.3954 13.1046 10.5 12 10.5C10.8955 10.5 10 11.3954 10 12.5C10 13.6046 10.8955 14.5 12 14.5Z" fill="#FF4F12"/>
<path fill-rule="evenodd" clip-rule="evenodd" d="M12.75 7L12.75 4H11.25L11.25 7H12.75ZM18.4871 8.49525L19.9871 5.99525L18.7009 5.2235L17.2009 7.7235L18.4871 8.49525ZM4.01315 5.99525L5.51315 8.49525L6.79939 7.7235L5.29939 5.2235L4.01315 5.99525ZM4.67927 14.0007C6.3303 16.1178 8.98839 17.5009 11.9991 17.5009C15.01 17.5009 17.6683 16.1176 19.3193 14.0001C18.2832 12.6715 16.8504 11.632 15.1828 11.042C15.3865 11.4859 15.5 11.9797 15.5 12.5C15.5 14.433 13.933 16 12 16C10.067 16 8.50003 14.433 8.50003 12.5C8.50003 11.9795 8.61365 11.4855 8.81744 11.0416C7.14906 11.6316 5.71569 12.6715 4.67927 14.0007ZM20.8667 13.5758C18.9711 10.8131 15.7011 9.00011 11.9998 9H11.9995C8.29775 9 5.0274 10.8133 3.13179 13.5765C2.95638 13.8322 2.9564 14.1694 3.13183 14.4251C5.02751 17.1878 8.29762 19.0009 11.9991 19.0009C15.7008 19.0009 18.9712 17.1875 20.8668 14.4244C21.0422 14.1687 21.0422 13.8314 20.8667 13.5758ZM12 14.5C13.1046 14.5 14 13.6046 14 12.5C14 11.3954 13.1046 10.5 12 10.5C10.8955 10.5 10 11.3954 10 12.5C10 13.6046 10.8955 14.5 12 14.5Z" fill="#FF4F12"/>
</svg>
