<svg width="24" height="24" fill="none" xmlns="http://www.w3.org/2000/svg"><path fill-rule="evenodd" clip-rule="evenodd" d="m4.261 8.406.115.18c1.617 2.352 4.421 3.92 7.624 3.92 3.202 0 6.005-1.567 7.622-3.919l.111-.176 1.268.803-.119.187a.704.704 0 0 1-.015.023c-1.895 2.766-5.165 4.581-8.867 4.581-3.702 0-6.972-1.815-8.867-4.58a.759.759 0 0 1-.012-.018L3 9.218l1.261-.812zM11.251 16v3h1.5v-3h-1.5zm-5.738-1.495-1.5 2.5 1.286.771 1.5-2.5-1.286-.771zm14.474 2.5-1.5-2.5-1.286.771 1.5 2.5 1.286-.771z" fill="#B5B7C0"/></svg>
